<?xml version="1.0" ?><!DOCTYPE svg  PUBLIC '-//W3C//DTD SVG 1.1//EN'  'http://www.w3.org/Graphics/SVG/1.1/DTD/svg11.dtd'><svg enable-background="new 0 0 502 502" height="502px" id="Layer_1" version="1.1" viewBox="0 0 502 502" width="502px" xml:space="preserve" xmlns="http://www.w3.org/2000/svg" xmlns:xlink="http://www.w3.org/1999/xlink"><g><path d="M192.333,408.387c-3.372-4.462-1.571-8.08,4.021-8.08h27.493c1.657,0,3-1.343,3-3V338.2   c0-5.592,4.534-10.126,10.127-10.126h55.346c5.593,0,10.125,4.534,10.125,10.126v59.106c0,1.657,1.343,3,3,3h27.503   c5.593,0,7.392,3.618,4.02,8.08l-66.21,89.267c-3.372,4.462-8.841,4.462-12.212,0L192.333,408.387z" fill="#08A626"/><path d="M347.996,1L109.425,1.002c-4.474,0-8.09,3.626-8.074,8.102l0.002,148.825   c0.008,2.237,1.827,4.051,4.064,4.051h12.695c2.237,0,4.051-1.813,4.051-4.051V24.299c0-1.657,1.343-3,3-3h206.029   c1.657,0,3,1.343,3.001,3l0.02,61.344c-0.036,4.476,3.565,8.102,8.039,8.102h61.886c1.657,0,3,1.343,3,3V427.29   c0,1.657-1.343,2.999-3,2.998l-65.581-0.049c-1.661-0.006-3.802,1.074-4.784,2.413l-11.332,15.347   c-0.98,1.339-0.432,2.429,1.229,2.433l95.523,0.155c4.474,0,8.105-3.627,8.111-8.101l0.223-362.046   c0.004-2.237-1.275-5.332-2.856-6.914L354.813,3.865C353.231,2.283,350.232,1,347.996,1z" fill="#08A626"/><path d="M118.112,327.474h-12.695c-2.237,0-4.059,1.813-4.068,4.051l0.012,110.962   c-0.02,4.474,3.591,8.101,8.064,8.101l95.682-0.155c1.661-0.004,2.21-1.094,1.229-2.433l-11.332-15.347   c-0.981-1.339-3.123-2.419-4.783-2.413l-65.057,0.049c-1.657,0.001-3-1.341-3-2.998v-95.766   C122.163,329.287,120.35,327.474,118.112,327.474z" fill="#08A626"/><path d="M343.905,179.095H82.541c-4.493,0-8.097,3.589-8.068,8.115l0.043,115.039   c0.026,4.528,3.677,8.108,8.174,8.108h261.216c4.468,0,8.122-3.58,8.122-8.108V187.21   C352.027,182.684,348.373,179.095,343.905,179.095z M135.014,278.887l-9.715-16.501l-9.744,16.501H92.279l21.314-35.433   L94.08,210.651h22.931l8.479,14.789l8.308-14.789h22.799l-19.539,33.222l21.366,35.014H135.014z M210.544,280.081h-46.413v-70.624   h21.313v51.105h25.1V280.081z M239.57,281.299c-7.271,0-16.46-2.562-20.159-4.861l-1.968-1.226l2.952-17.962l4.354,2.516   c2.902,1.669,9.66,3.532,14.723,3.532c3.491,0,5.574-1.621,5.574-4.337c0-1.201,0-2.842-7.382-5.817   c-11.833-4.635-17.837-12.1-17.837-22.18c0-13.433,10.302-22.812,25.059-22.812c6.759,0,14.315,2.032,18.285,4.046l2.537,1.288   l-4.798,17.379l-3.848-2.084c-1.874-1.016-6.671-2.628-11.569-2.628c-4.066,0-4.38,2.734-4.38,3.572c0,1.404,0,2.417,8.033,5.848   c11.543,4.802,16.923,11.902,16.923,22.343C266.069,268.703,259.129,281.299,239.57,281.299z M310.811,278.887l-9.716-16.501   l-9.744,16.501h-23.274l21.313-35.433l-19.515-32.803h22.932l8.479,14.789l8.309-14.789h22.8l-19.54,33.222l21.367,35.014H310.811z   " fill="#08A626"/></g></svg>