<svg viewBox="0 0 512 512" xml:space="preserve" xmlns="http://www.w3.org/2000/svg"><g fill="#e3ab6f" class="fill-4d4d4d"><path d="M463.938 133.523c-.922-11.43-6.266-32.297-29.719-55.75-23.438-23.445-44.313-28.789-55.75-29.719a18.076 18.076 0 0 0-14.25 5.25l-23.313 23.289 94.5 94.477 23.281-23.281a18.078 18.078 0 0 0 5.251-14.266zM160.372 400.034a7.025 7.025 0 0 0-2.051 4.668l-.462 10.859-57.719 16.75c-1.391-2.78-4.172-7.78-8.422-12.03s-9.25-7.063-12.031-8.406l16.75-57.75 10.855-.449a7.02 7.02 0 0 0 4.676-2.051l237.813-237.82-23.03-23.039L85.094 332.438c-3.406 3.375-5.859 7.625-7.125 12.25L48.297 453.531a8.208 8.208 0 0 0 2.125 8.031c2.109 2.125 5.172 2.905 8.047 2.155l108.828-29.688a27.952 27.952 0 0 0 12.297-7.125l241.64-241.654-23.047-23.031-237.815 237.815z"></path><path d="m131.625 387.211 11.874.521a7.016 7.016 0 0 0 5.272-2.051L385.125 149.32l-22.43-22.438-236.372 236.366a7.02 7.02 0 0 0-2.05 5.266l.508 11.869a7.14 7.14 0 0 0 6.844 6.828z"></path></g></svg>