<svg viewBox="0 0 100 100" xml:space="preserve" xmlns="http://www.w3.org/2000/svg"><path d="m17.703 34.192 9.162 54.318v.002C29.312 92.234 39.091 95 50 95s20.693-2.766 23.141-6.49l9.156-54.318c-6.477 3.7-18.507 6.19-32.297 6.19s-25.82-2.49-32.297-6.19zm17.404 52.089a1.996 1.996 0 0 1-2.188-1.777l-3.802-36.783a1.993 1.993 0 0 1 1.778-2.188 1.99 1.99 0 0 1 2.188 1.777l3.802 36.783a1.993 1.993 0 0 1-1.778 2.188zm9.947 1.565h-.071a1.994 1.994 0 0 1-1.991-1.923l-1.275-37.049a1.994 1.994 0 0 1 1.925-2.06c1.145-.021 2.023.825 2.06 1.925l1.275 37.044a1.996 1.996 0 0 1-1.923 2.063zm18.066-3.753 3.799-36.783a1.986 1.986 0 0 1 2.187-1.778 1.993 1.993 0 0 1 1.777 2.188l-3.799 36.783a1.994 1.994 0 0 1-2.185 1.778 1.993 1.993 0 0 1-1.779-2.188zm-8.821-35.354c.037-1.1.924-1.993 2.061-1.925a1.994 1.994 0 0 1 1.926 2.06l-1.277 37.052a1.994 1.994 0 0 1-1.99 1.924c-.023 0-.049 0-.072-.002a1.992 1.992 0 0 1-1.922-2.062l1.274-37.047z" fill="#c42626" class="fill-000000"></path><path d="M50 5c-20.652 0-37.375 5.577-37.375 12.458v7.476c0 6.879 16.723 12.458 37.375 12.458 20.65 0 37.375-5.579 37.375-12.458v-7.476C87.375 10.577 70.65 5 50 5zm25.171 17.484C68.509 24.707 59.568 25.93 50 25.93c-9.569 0-18.508-1.223-25.171-3.444-6.755-2.252-8.217-4.573-8.217-5.027s1.462-2.776 8.217-5.028C31.491 10.21 40.431 8.986 50 8.986c9.568 0 18.51 1.224 25.171 3.444 6.756 2.252 8.218 4.574 8.218 5.027 0 .454-1.462 2.775-8.218 5.027z" fill="#c42626" class="fill-000000"></path><path d="M56.977 12.143H43.023a5.986 5.986 0 0 0-5.98 5.979 1.993 1.993 0 0 0 3.987 0c0-1.099.895-1.993 1.994-1.993h13.953c1.1 0 1.994.895 1.994 1.993a1.993 1.993 0 0 0 3.986 0 5.986 5.986 0 0 0-5.98-5.979z" fill="#c42626" class="fill-000000"></path></svg>